<?xml version="1.0" encoding="UTF-8"?>
<svg id="YOGESHWARI" xmlns="http://www.w3.org/2000/svg" viewBox="0 0 366.933 247.571">
  <path id="Name" d="M45.402,148.321c-7.536.591-15.078,1.066-22.627,1.4-5.669.442-11.324.796-16.97-.193-1.889-.36-4.024-.518-5.796-1.346-.034-.11.029-.227.139-.261,1.886-.573,3.771-.929,5.657-1.207,5.646-.989,11.301-.635,16.97-.194,7.549.334,15.091.809,22.627,1.4.247.013.227.385,0,.4ZM366.785,147.921c-1.886-.573-3.771-.929-5.657-1.207-5.646-.989-11.301-.635-16.97-.194-7.549.334-15.091.809-22.627,1.4-.247.013-.227.385,0,.4,7.536.591,15.078,1.066,22.627,1.4,5.669.442,11.324.796,16.97-.193,1.889-.36,4.024-.518,5.796-1.346.034-.11-.029-.227-.139-.261ZM260.76,83.706c.441,0,.885-.145,1.255-.443l25.727-20.746c.859-.693.994-1.953.301-2.812-.692-.861-1.953-.994-2.812-.302l-25.727,20.747c-.859.693-.994,1.952-.301,2.812.396.49.974.745,1.558.745ZM79.192,62.516l25.727,20.747c.37.298.813.443,1.254.443.584,0,1.163-.254,1.558-.745.693-.86.559-2.119-.301-2.812l-25.727-20.747c-.86-.694-2.119-.558-2.812.301-.693.86-.559,2.119.301,2.812ZM183.265,65.108c.001.052.027.089.057.119.034.035.077.053.126.057.006,0,.011.005.018.006.006,0,.011-.005.018-.006.049-.003.092-.022.126-.057.031-.03.056-.067.057-.119.591-10.82,1.066-21.646,1.4-32.475.443-8.128.792-16.245-.193-24.356-.278-2.706-.633-5.412-1.207-8.119-.01-.049-.042-.087-.082-.116-.01-.008-.019-.011-.031-.017-.015-.008-.027-.021-.045-.025-.016-.003-.028.008-.044.008-.015,0-.028-.011-.044-.008-.018.004-.029.017-.045.025-.011.006-.021.009-.031.017-.04.03-.072.068-.082.116-.573,2.706-.929,5.412-1.207,8.119-.985,8.111-.636,16.229-.193,24.356.334,10.829.808,21.654,1.4,32.475ZM246.556,181.979c-15.165,8.239-31.579,14.383-48.671,16.94-26.718,3.851-54.094-4.059-76.98-17.786-8.295-5.137-16.724-10.701-25.789-14.616-11.743-5.002-24.678-7.168-37.222-7.823,16.511,3.153,32.073,9.031,46.655,17.098,9.61,5.627,19.014,12.272,29.376,16.674,23.902,10.711,49.331,14.714,75.009,8.408,19.334-4.504,37.508-13.236,53.982-24.157,14.355-8.433,29.641-15.059,46.121-18.462-11.213.72-22.388,3.168-33.074,7.157-10.498,4.262-19.57,11.143-29.409,16.567ZM183.507,184.018c1.066,0,2.137-.039,3.212-.117,11.202-.826,21.526-5.979,29.068-14.508l.358-.406-.434-.325c-.408-.306-.807-.595-1.213-.89l-.102-.073c-.598-.438-1.206-.887-1.873-1.395l-.366-.279-.308.342c-7.245,8.043-17.589,12.655-28.379,12.655-13.146,0-25.216-6.65-32.288-17.788l-.243-.384-4.472,2.273.289.463c7.969,12.798,21.838,20.433,36.749,20.432ZM232.754,91.378c-31.151-15.46-69.165-15.331-100.609-.717-10.26,4.779-20.001,11.342-29.652,17.151-14.752,8.443-29.258,17.145-44.599,24.611,10.855-3.453,21.425-7.841,31.768-12.711,9.911-5.258,19.837-11.504,29.407-17.386,18.924-12.036,41.006-18.752,63.461-18.609,41.867.229,58.919,19.56,93.489,35.569,10.773,4.058,21.841,7.004,33.019,9.149-21.667-7.206-41.644-17.052-61.17-28.887-4.927-2.858-9.929-5.663-15.115-8.169ZM235.971,126.905c.955,4.523,1.412,9.165,1.375,13.816-.104,14.092-4.994,27.974-13.726,39.131,12.639-14.36,18.378-34.552,15.302-53.488-.354-2.002-3.331-1.437-2.951.541ZM247.622,132.947c1.475,3.056,2.003,6.742,1.303,10.383,1.664-3.407,2.403-7.698,1.429-11.702-.897-1.781-3.568-.491-2.732,1.319ZM183.472,176.302c16.513,0,30.711-11.22,34.526-27.285l.12-.504-4.899-.976-.113.466c-3.523,14.53-16.921,24.305-31.869,23.22-3.271-.231-6.457-.996-9.47-2.271l-.44-.187-.206.432c-.25.523-.5,1.014-.744,1.491l-.14.274c-.312.604-.614,1.189-.917,1.824l-.224.47.479.205c4.407,1.885,9.083,2.841,13.897,2.841ZM58.007,150.313c-.42-1.671.439-3.398,2.024-4.073,12.377-5.267,21.925-10.097,30.048-15.202,1.288-.838,2.628-1.714,3.977-2.595,12.376-8.085,25.174-16.446,39.075-22.16,5.441-2.384,11.126-4.425,16.83-6.038.064-.022.13-.043.196-.062,6.788-1.926,13.808-3.316,20.864-4.13,9.453-1.085,18.947-1.134,28.223-.143,7.293.78,14.454,2.205,21.285,4.235,1.653.486,3.194.977,4.702,1.496,16.488,5.732,31.163,14.445,45.992,23.623,10.534,6.558,22.967,13.705,35.962,20.671,1.434.769,2.148,2.422,1.727,3.992-.421,1.57-1.878,2.633-3.493,2.591-1.465-.048-2.892-.13-4.287-.242-6.813,1.249-13.487,3.093-19.894,5.521-11.894,4.508-19.837,9.801-24.583,12.963l-1.282.851c-8.22,5.41-37.556,23.102-69.934,23.652-.523.009-1.044.013-1.565.013-27.057,0-50.523-11.866-59.47-17.044-3.242-1.877-6.325-3.875-9.306-5.808-7.91-5.127-16.089-10.43-29.116-14.858-6.585-2.239-13.414-3.906-20.354-4.992-1.299.13-2.603.254-3.914.372-.106.009-.211.014-.316.014-1.589,0-2.999-1.08-3.392-2.647ZM288.324,150.17c-13.875-3.498-24.797-10.497-37.671-18.78-2.025-1.303-4.115-2.642-6.258-3.999,1.567,9.404.248,19.098-3.565,27.509,2.885-8.793,3.056-18.278.63-26.9-.221-.784.226-1.595.997-1.837-.814-.516-1.62-1.016-2.43-1.504-.153-.092-.297-.194-.431-.305-.19-.114-.384-.22-.575-.332-2.304.51-4.636.996-6.986,1.449l.175.574c1.688,5.545,2.402,11.328,2.121,17.189-.781,16.815-9.912,31.517-23.201,40.203,6.779-1.042,13.495-2.509,20.119-4.389,10.157-4.548,17.817-9.272,21.375-11.613l1.258-.836c4.6-3.064,13.16-8.769,25.584-13.478,2.904-1.1,5.861-2.081,8.858-2.953ZM213.827,105.573c.57.164,1.145.334,1.722.509,4.527,1.362,9.084,3.039,13.533,4.981,5.008,2.191,9.928,4.747,14.625,7.595.149.091.291.192.423.302.893.542,1.778,1.092,2.656,1.658,2.627,1.65,5.177,3.291,7.654,4.884,10.965,7.054,20.424,13.14,31.559,16.706-6.562-3.755-12.787-7.46-18.467-10.995-14.476-8.959-28.785-17.46-44.59-22.956-1.396-.481-2.839-.939-4.398-1.398-1.555-.462-3.128-.891-4.717-1.286ZM86.172,141.46c.191-.069.381-.141.572-.212,10.46-3.97,20.388-10.224,30.482-16.826,1.04-.695,2.101-1.411,3.158-2.124,2.228-1.503,4.531-3.057,6.838-4.541,2.132-1.468,4.323-2.854,6.562-4.151-12.583,5.464-24.426,13.202-35.899,20.697-1.354.884-2.699,1.763-4.036,2.632-2.435,1.53-4.981,3.032-7.677,4.524ZM79.853,150.49c2.608.703,5.193,1.477,7.739,2.343,13.615,4.63,22.06,10.104,30.227,15.397,3.064,1.986,5.958,3.861,9.091,5.675.938.543,2.052,1.166,3.309,1.839,4.305,1.529,8.652,2.867,13.034,4.034-9.342-10.716-15.075-24.703-15.912-38.977-.293-4.804-.076-9.653.672-14.436.127-.819.895-1.379,1.713-1.252.847.129,1.417.955,1.237,1.793-3.946,18.332.68,38.085,12.298,52.875,3.518.936,7.058,1.758,10.619,2.459-8.743-6.247-15.509-15.238-18.933-25.976l-.144-.452.444-.168c.254-.096.509-.188.76-.277l.509-.184c.838-.301,1.654-.594,2.523-.877l.479-.156.152.481c4.625,14.624,15.83,25.463,29.65,29.897,6.15.616,12.346.898,18.576.825,2.63-.031,5.254-.133,7.873-.288,19.574-5.455,33.816-23.698,33.624-44.688-.038-3.653-.498-7.264-1.369-10.738-.902.164-1.795.318-2.681.467.063.241.12.488.177.735l-.457.222h0s.486-.114.486-.114c.224.947.415,1.93.588,3.005.071.436.142.884.193,1.332.049.347.09.717.12,1.086.02.091.032.231.032.371.038.304.069.663.089,1.021.021.267.04.532.052.81.098,1.743.08,3.548-.052,5.355-.6,8.053-3.45,15.767-8.245,22.31l-.298.406-.404-.301c-.508-.379-.986-.729-1.454-1.066-.583-.423-1.137-.835-1.73-1.286l-.391-.298.29-.396c4.805-6.57,7.344-14.345,7.344-22.485,0-.503-.01-.996-.03-1.5,0-.067.002-.114-.005-.162-.014-.422-.042-.779-.07-1.146-.014-.226-.022-.396-.042-.565l-.09-.928c-.019-.167-.038-.338-.065-.51-.053-.432-.111-.844-.181-1.245-.069-.514-.158-1.001-.265-1.488-.102-.512-.209-1.005-.327-1.487-.078-.316-.15-.614-.228-.902l-.34.048c-.776.111-1.569.224-2.379.334.021.069.042.151.064.232.122.457.244.925.346,1.393.119.509.221,1.025.321,1.541l.01.105c.084.441.165.957.235,1.482.071.475.122.965.163,1.445.02.095.032.222.032.362.039.435.068.901.09,1.379.029.532.04,1.072.04,1.611,0,1.464-.083,2.845-.254,4.222l-.066.535-4.907-.986.05-.455c.118-1.08.178-2.195.178-3.315,0-.453-.011-.896-.03-1.349l-.009-.158c-.021-.421-.049-.833-.089-1.245-.029-.357-.068-.719-.117-1.07-.021-.215-.039-.399-.076-.594-.039-.326-.09-.608-.141-.897l-.038-.267c-.069-.327-.147-.736-.255-1.156-.164-.759-.35-1.473-.567-2.18-.932.107-1.844.209-2.743.301.899,2.762,1.355,5.656,1.355,8.615,0,11.438-6.871,21.566-17.505,25.805l-.597.237-.085-.637c-.099-.744-.198-1.399-.307-2.054-.102-.647-.202-1.29-.303-2.023l-.051-.37.34-.154c8.32-3.756,13.622-12.041,13.507-21.107-.029-2.47-.453-4.884-1.262-7.181l-.983-.591c-.416.041-.831.072-1.243.103l-.542.041c-.102.009-.204.018-.306.024,1.072,2.489,1.615,5.146,1.615,7.907,0,5.605-2.377,10.996-6.521,14.791-4.199,3.847-9.65,5.692-15.353,5.187-9.021-.787-16.592-7.832-18-16.75-.602-3.818-.135-7.638,1.35-11.095-.517-.035-1.031-.07-1.531-.115l-.083-.01h0s-1.222-.092-1.222-.092c-.983,2.568-1.481,5.286-1.481,8.084,0,6.4,2.727,12.547,7.481,16.863,4.817,4.375,11.051,6.44,17.561,5.809,1.127-.109,2.219-.3,3.242-.566l.546-.142.075.56c.058.426.123.824.189,1.229l.027.176c.125.795.249,1.591.374,2.567l.057.447-.438.103c-3.382.798-6.884.943-10.405.439-13.85-1.982-24.038-14.092-23.699-28.167.066-2.717.515-5.365,1.334-7.883-.944-.096-1.862-.191-2.759-.292-.309,1.022-.565,2.07-.765,3.12-.04.196-.078.389-.106.58-.05.303-.1.606-.139.91-.041.305-.08.595-.108.886-.029.212-.046.405-.064.601l-.026.279c-.029.374-.049.76-.068,1.155-.02.527-.029,1.061-.029,1.595.095,10.676,5.947,20.682,15.271,26.107l.389.227-.185.411c-.269.598-.557,1.146-.854,1.712-.327.622-.635,1.227-.962,1.901l-.233.481-.464-.265c-11.08-6.311-17.962-18.13-17.962-30.845,0-.54.01-1.08.041-1.609.02-.454.041-.915.092-1.375-.003-.126.019-.307.041-.487.018-.244.049-.501.08-.759.03-.278.071-.574.111-.86.072-.509.153-1.019.255-1.528.07-.381.152-.778.244-1.166.026-.146.068-.316.111-.486.038-.188.09-.389.143-.59l.112-.429c.016-.063.033-.127.05-.189-.904-.119-1.809-.243-2.714-.373-.319,1.199-.566,2.337-.753,3.465-.058.3-.095.597-.132.884-.037.222-.055.372-.074.532-.041.25-.069.477-.088.712-.042.298-.061.576-.08.854-.032.216-.041.389-.049.562-.031.386-.06.767-.07,1.139-.011.103-.01.149-.01.196-.02.514-.03,1.007-.03,1.51,0,5.962,1.342,11.674,3.987,16.977l.221.443-4.45,2.274-.226-.451c-3.008-6.005-4.533-12.479-4.533-19.243,0-.749.021-1.499.061-2.237.009-.269.028-.538.047-.814.013-.26.034-.478.055-.696.028-.416.078-.847.128-1.276,0-.044.011-.122.027-.201.053-.481.127-.984.203-1.495l.015-.103c.076-.502.168-.994.263-1.494l.055-.246c.086-.479.208-1.027.34-1.565.011-.058.03-.138.062-.218.018-.084.04-.178.063-.276-.909-.146-1.806-.295-2.688-.452-.89,3.619-1.341,7.343-1.341,11.075,0,3.385.37,6.746,1.098,9.99l.1.443-.432.142c-1.065.349-2.03.696-2.966,1.034l-1.348.495-.129-.551c-.878-3.758-1.323-7.645-1.323-11.554,0-5.026.724-9.96,2.152-14.665l.221-.745c-1.66-.321-3.33-.663-5.02-1.025-1.474.962-2.943,1.94-4.399,2.92.035.175.044.358.013.545-2.448,8.678-2.318,18.208.594,27.059-3.53-7.789-4.918-16.676-3.861-25.416-.386.259-.769.519-1.157.778-.623.407-1.244.807-1.865,1.212.198.31.288.689.219,1.079-1.468,3.241-2.206,6.948-1.43,10.777-1.465-2.945-2.111-6.433-1.744-9.948-8.823,5.653-17.632,10.842-27.042,14.412-3.035,1.147-6.168,2.009-9.37,2.696ZM141.044,135.784h.003s0,0,0,0h-.003ZM44.44,236.107l-4.049-5.589h-2.97l5.743,7.789v8.537h2.552v-8.537l5.721-7.789h-2.948l-4.048,5.589ZM83.402,235.491c.418,1.012.638,2.09.638,3.19s-.22,2.179-.638,3.168c-.418.99-.99,1.849-1.738,2.597-.77.748-1.628,1.342-2.596,1.761-1.012.418-2.09.638-3.19.638s-2.179-.22-3.168-.638c-.99-.419-1.849-1.013-2.597-1.761s-1.342-1.606-1.76-2.597c-.418-.989-.638-2.068-.638-3.168s.22-2.179.638-3.19c.418-.969,1.012-1.826,1.76-2.597.748-.748,1.606-1.32,2.597-1.738.99-.418,2.068-.638,3.168-.638s2.178.22,3.19.638c.968.418,1.826.99,2.596,1.738.748.771,1.32,1.628,1.738,2.597ZM81.488,238.682c0-1.496-.594-2.904-1.65-3.961-1.056-1.056-2.464-1.65-3.96-1.65s-2.905.595-3.961,1.65c-1.056,1.057-1.65,2.465-1.65,3.961s.594,2.904,1.65,3.961c1.056,1.056,2.464,1.649,3.961,1.649s2.904-.594,3.96-1.649c1.056-1.057,1.65-2.465,1.65-3.961ZM110.836,240.684h3.08v3.015h-.022c-.286.154-.594.264-.902.353,0,0-.022.021-.044.021s-.066,0-.088.022c-.022,0-.044,0-.066.021h-.066c-.022.022-.066.022-.088.022q-.022.021-.044.021c-.154.022-.33.066-.484.088h-.132c-.022,0-.044,0-.044.022h-.33c-.022.021-.044.021-.066.021h-.154c-1.496,0-2.904-.594-3.96-1.649-.682-.683-1.166-1.519-1.43-2.442-.11-.396-.176-.814-.198-1.232-.022-.11-.022-.198-.022-.286,0-.11,0-.198.022-.309v-.241c.022-.221.066-.44.11-.66q0-.022.022-.044c.132-.595.352-1.145.682-1.673,0-.021.022-.065.044-.088.044-.065.088-.132.132-.198,0,0,.022-.021.044-.044.088-.132.176-.264.286-.396.022,0,.022-.022.022-.022.088-.109.198-.198.286-.286.286-.308.616-.572.968-.792.044-.021.088-.044.11-.065.858-.528,1.848-.793,2.882-.793h.352c.022,0,.044.022.066.022h.198c.022.021.066.021.088.021h.044c.022,0,.066.022.088.022h.044c.088.022.198.022.286.044.022.022.044.022.044.022.044,0,.066,0,.088.021h.066c.022.022.044.022.066.022.33.088.682.22,1.012.374.396.198.77.418,1.1.704v-3.015h-.022c-.044-.022-.088-.044-.132-.066-.022,0-.022-.021-.022-.021-.88-.396-1.804-.616-2.75-.683-.066-.021-.132-.021-.198-.021h-.418c-1.1,0-2.178.198-3.168.638-.99.396-1.848.99-2.596,1.738s-1.342,1.628-1.76,2.597c-.374.88-.572,1.826-.638,2.772v.418c0,.264.022.55.044.814.066.813.286,1.605.594,2.354.418.99,1.012,1.849,1.76,2.597.528.55,1.144,1.013,1.804,1.364.242.154.506.286.792.396.11.044.22.088.33.132.088.021.154.065.242.088h.022c.814.286,1.694.418,2.574.418h.418c1.034-.066,2.002-.286,2.927-.704l.022-.022c.044-.021.11-.044.154-.065.044-.022.088-.044.11-.066h.044q.022-.021.044-.044c.044,0,.088-.021.11-.044.022-.021.044-.021.066-.044.044-.021.066-.021.11-.044.022-.022.044-.022.066-.044.022-.022.044-.022.066-.044.044-.022.066-.044.088-.066.044,0,.066-.021.088-.044.022,0,.044-.021.066-.044.022,0,.066-.021.088-.044q.022-.021.044-.021l.572-.396v-6.733h-5.633v2.311ZM136.09,230.519v16.326h9.791v-2.311h-7.239v-5.061h5.963v-2.311h-5.963v-4.356h7.239v-2.288h-9.791ZM173.007,239.144c-.353-.33-.837-.792-1.232-1.188l-2.729-2.618c-.682-.66-.704-1.166-.616-1.474.132-.463.616-.837,1.188-.946.462-.088,1.32-.088,2.156.924l2.002-1.606c-.638-.77-1.386-1.32-2.222-1.65-.793-.286-1.629-.352-2.421-.176-.726.132-1.408.462-1.958.924-.595.507-1.013,1.123-1.21,1.827-.198.66-.177,1.386.044,2.068.22.703.638,1.363,1.254,1.958l2.002,1.892c.088.089,1.276,1.255,2.003,1.937.462.44.968,1.101.748,1.849-.198.66-.881,1.21-1.717,1.364-.483.109-1.012.065-1.496-.132-.594-.221-1.144-.66-1.606-1.276l-2.024,1.584c.771.99,1.673,1.672,2.707,2.091.616.241,1.276.352,1.937.352.33,0,.66-.022.989-.088,1.783-.353,3.213-1.606,3.675-3.19.221-.748.198-1.54-.044-2.288-.242-.771-.726-1.497-1.43-2.135ZM203.125,237.493h-6.513v-6.975h-2.553v16.326h2.553v-7.041h6.513v7.041h2.553v-16.326h-2.553v6.975ZM240.988,241.278l-2.904-6.821-1.431-3.322-1.32,3.366-2.706,6.777-4.599-10.76h-2.816l7.48,17.053,4.049-9.836,4.312,9.836,7.02-17.053h-2.795l-4.29,10.76ZM269.433,229.771l7.085,17.074h-2.795l-1.386-3.498h-5.809l-1.387,3.498h-2.816l7.107-17.074ZM271.414,241.058l-1.98-4.973-1.98,4.973h3.961ZM302.521,240.948l4.4,5.896h-2.882l-4.115-5.522h-1.87v5.522h-2.553v-16.326h4.841c2.156,0,3.411.88,4.071,1.628.857.946,1.319,2.267,1.319,3.784,0,1.497-.462,2.816-1.319,3.763-.396.44-1.013.946-1.893,1.255ZM300.342,239.033c1.057,0,1.849-.308,2.354-.88.616-.66.727-1.584.727-2.223,0-.659-.11-1.584-.727-2.244-.506-.572-1.298-.857-2.354-.857h-2.288v6.204h2.288ZM325.861,246.845h2.553v-16.326h-2.553v16.326Z" stroke-width="0"/>
</svg>